<svg xmlns="http://www.w3.org/2000/svg" xmlns:xlink="http://www.w3.org/1999/xlink" width="432" zoomAndPan="magnify" viewBox="20.25 92.25 324 192" height="256" preserveAspectRatio="xMidYMid meet" version="1.0" style=""><defs><g/><clipPath id="d88879fa25"><path d="M 29.238281 103.269531 L 126 103.269531 L 126 272 L 29.238281 272 Z M 29.238281 103.269531 " clip-rule="nonzero"/></clipPath><clipPath id="457c4961fa"><path d="M 94 103.269531 L 283.488281 103.269531 L 283.488281 272 L 94 272 Z M 94 103.269531 " clip-rule="nonzero"/></clipPath><clipPath id="7fc917f9e2"><rect x="0" width="179" y="0" height="18"/></clipPath></defs><g clip-path="url(#d88879fa25)"><path fill="#ed1c24" d="M 75.132812 244.660156 C 77.519531 243.363281 87.640625 237.660156 95.65625 233.160156 C 94.257812 229.496094 93.035156 225.683594 91.996094 221.753906 C 82.707031 224.914062 71.28125 228.773438 68.972656 229.640625 C 66.910156 234.578125 65.171875 239.785156 63.808594 245.226562 C 58.546875 243.066406 53.324219 240.476562 48.199219 237.46875 C 45.945312 238.316406 43.695312 239.164062 41.441406 240.011719 C 44.804688 246.34375 48.761719 251.925781 53.1875 256.574219 C 54.507812 255.859375 55.824219 255.144531 57.144531 254.429688 C 62.246094 256.515625 67.386719 258.230469 72.523438 259.585938 C 73.042969 254.445312 73.929688 249.457031 75.132812 244.660156 Z M 61.277344 239.984375 C 62.78125 235.019531 64.589844 230.269531 66.664062 225.757812 C 69.234375 224.898438 81.394531 220.894531 91.003906 217.726562 C 90.097656 213.773438 89.375 209.714844 88.832031 205.578125 C 78.519531 207.320312 65.789062 209.460938 63.367188 209.917969 C 60.453125 214.417969 57.796875 219.246094 55.457031 224.363281 C 50.695312 221.328125 46.035156 217.882812 41.535156 214.035156 C 38.507812 214.605469 35.476562 215.175781 32.445312 215.746094 C 34.074219 222.628906 36.28125 229.097656 38.980469 235.023438 C 41.726562 234.101562 44.46875 233.183594 47.214844 232.265625 C 51.824219 235.195312 56.527344 237.769531 61.277344 239.984375 Z M 53.933594 218.769531 C 56.3125 214.144531 58.945312 209.777344 61.789062 205.695312 C 64.445312 205.296875 77.765625 203.160156 88.359375 201.464844 C 87.96875 197.535156 87.738281 193.546875 87.679688 189.511719 C 77.304688 189.507812 63.878906 189.496094 61.320312 189.527344 C 57.667969 193.460938 54.210938 197.753906 51.007812 202.390625 C 46.851562 198.578125 42.867188 194.378906 39.105469 189.8125 C 35.816406 189.855469 32.527344 189.894531 29.238281 189.9375 C 29.371094 196.96875 30.078125 203.78125 31.289062 210.277344 C 34.691406 209.765625 38.09375 209.257812 41.496094 208.742188 C 45.507812 212.425781 49.667969 215.773438 53.933594 218.769531 Z M 87.191406 261.785156 C 89.207031 260.171875 96.789062 253.964844 103.171875 248.746094 C 100.96875 245.085938 98.984375 241.175781 97.230469 237.066406 C 89.566406 241.480469 80.253906 246.832031 78.148438 248.082031 C 77.046875 253.292969 76.332031 258.71875 76.058594 264.300781 C 70.410156 263.089844 64.738281 261.449219 59.097656 259.375 C 58.484375 259.738281 57.867188 260.105469 57.253906 260.46875 C 65.492188 267.625 75.054688 271.722656 85.253906 271.722656 L 87.242188 271.722656 C 87.054688 268.359375 87.039062 265.042969 87.191406 261.785156 Z M 117.28125 265.929688 C 114.996094 268.824219 112.964844 271.394531 112.703125 271.722656 L 125.285156 271.722656 C 124.359375 271.175781 123.441406 270.59375 122.53125 269.976562 C 120.730469 268.757812 118.980469 267.402344 117.28125 265.929688 Z M 105.476562 252.367188 C 99.46875 257.398438 92.628906 263.113281 90.886719 264.617188 C 90.875 266.960938 90.957031 269.332031 91.125 271.722656 L 106.976562 271.722656 C 107.679688 270.90625 110.914062 266.890625 114.09375 262.945312 C 111.011719 259.851562 108.132812 256.320312 105.476562 252.367188 Z M 50.945312 174.203125 C 54.765625 170.664062 58.734375 167.457031 62.800781 164.589844 C 65.476562 165.125 78.570312 167.617188 88.816406 169.574219 C 89.339844 165.511719 90.042969 161.527344 90.921875 157.644531 C 81.703125 154.261719 70.273438 150.050781 67.925781 149.234375 C 63.132812 151.683594 58.40625 154.542969 53.800781 157.8125 C 51.207031 152.816406 48.90625 147.511719 46.953125 141.941406 C 44.40625 141.054688 41.859375 140.167969 39.3125 139.28125 C 36.5625 145.1875 34.300781 151.644531 32.621094 158.527344 C 35.976562 159.203125 39.332031 159.875 42.6875 160.546875 C 45.199219 165.375 47.964844 169.933594 50.945312 174.203125 Z M 91.253906 109.828125 C 93.15625 111.515625 99.90625 117.339844 105.6875 122.332031 C 108.453125 118.265625 111.453125 114.648438 114.667969 111.503906 C 111.660156 107.808594 108.660156 104.125 107.957031 103.296875 L 85.253906 103.296875 C 81.953125 103.296875 78.722656 103.730469 75.578125 104.550781 C 75.53125 107.121094 75.578125 109.667969 75.710938 112.179688 C 80.921875 111.039062 86.117188 110.257812 91.253906 109.828125 Z M 122.53125 105.042969 C 123.441406 104.425781 124.359375 103.84375 125.285156 103.296875 L 113.660156 103.296875 C 113.929688 103.644531 115.769531 105.941406 117.882812 108.578125 C 119.390625 107.300781 120.941406 106.121094 122.53125 105.042969 Z M 50.488281 196.617188 C 53.640625 192.472656 56.992188 188.625 60.5 185.097656 C 63.261719 185.167969 77.085938 185.28125 87.683594 185.382812 C 87.742188 181.4375 87.964844 177.53125 88.347656 173.6875 C 78.265625 171.859375 65.351562 169.5 62.84375 169.09375 C 58.5625 172.332031 54.414062 175.964844 50.453125 179.976562 C 47.023438 175.507812 43.824219 170.683594 40.914062 165.535156 C 37.753906 165.019531 34.589844 164.507812 31.429688 163.996094 C 30.175781 170.484375 29.429688 177.300781 29.257812 184.332031 C 32.832031 184.421875 36.410156 184.507812 39.984375 184.59375 C 43.300781 188.914062 46.816406 192.925781 50.488281 196.617188 Z M 63.558594 131.308594 C 68.40625 129.289062 73.296875 127.632812 78.179688 126.328125 C 80.5 127.742188 89.898438 133.269531 97.351562 137.664062 C 99.128906 133.542969 101.136719 129.625 103.363281 125.953125 C 97.578125 121.082031 90.667969 115.25 88.792969 113.710938 C 83.300781 114.363281 77.75 115.425781 72.199219 116.914062 C 71.8125 113.289062 71.609375 109.585938 71.597656 105.820312 C 66.757812 107.640625 62.164062 110.410156 57.917969 113.988281 C 58.847656 114.554688 59.78125 115.121094 60.714844 115.691406 C 61.3125 121.070312 62.273438 126.289062 63.558594 131.308594 Z M 55.300781 152.210938 C 59.6875 149.386719 64.167969 146.914062 68.695312 144.792969 C 71.15625 145.753906 82.589844 150.066406 91.910156 153.589844 C 92.996094 149.441406 94.285156 145.425781 95.769531 141.5625 C 88.367188 137.3125 78.828125 131.824219 76.578125 130.566406 C 71.378906 132.148438 66.183594 134.144531 61.050781 136.5625 C 59.402344 131.199219 58.109375 125.582031 57.230469 119.761719 C 56.078125 119.117188 54.925781 118.472656 53.773438 117.832031 C 49.277344 122.429688 45.25 127.984375 41.816406 134.300781 C 44.410156 135.3125 47.003906 136.324219 49.59375 137.335938 C 51.203125 142.523438 53.117188 147.492188 55.300781 152.210938 " fill-opacity="1" fill-rule="nonzero"/></g><g clip-path="url(#457c4961fa)"><path fill="#ed1c24" d="M 231.394531 231.476562 L 183.210938 231.476562 C 181.824219 234.527344 180.28125 237.421875 178.589844 240.132812 C 174.671875 246.414062 170.023438 251.484375 165.144531 254.789062 C 160.59375 257.878906 155.890625 259.441406 151.167969 259.441406 C 146.441406 259.441406 141.738281 257.878906 137.1875 254.789062 C 132.3125 251.484375 127.660156 246.414062 123.742188 240.132812 C 115.054688 226.207031 110.269531 207.515625 110.269531 187.507812 C 110.269531 167.503906 115.054688 148.8125 123.742188 134.886719 C 127.660156 128.605469 132.3125 123.535156 137.1875 120.226562 C 141.738281 117.140625 146.441406 115.578125 151.167969 115.578125 C 155.890625 115.578125 160.59375 117.140625 165.144531 120.226562 C 170.023438 123.535156 174.671875 128.605469 178.589844 134.886719 C 180.28125 137.597656 181.824219 140.492188 183.210938 143.539062 L 283.511719 143.539062 L 186.816406 132.269531 C 183.945312 126.972656 180.664062 122.257812 177.058594 118.25 L 227.929688 122.257812 L 155.292969 104.300781 C 152.644531 103.640625 149.933594 103.296875 147.171875 103.296875 C 118.160156 103.296875 94.640625 141 94.640625 187.507812 C 94.640625 234.019531 118.160156 271.722656 147.171875 271.722656 C 150.664062 271.722656 154.074219 271.175781 157.378906 270.128906 C 158.261719 269.851562 159.136719 269.539062 160 269.191406 L 224.953125 245.886719 L 176.78125 257.070312 C 180.496094 253 183.871094 248.179688 186.816406 242.75 L 231.394531 231.476562 " fill-opacity="1" fill-rule="nonzero"/></g><g fill="#ffffff" fill-opacity="1"><g transform="translate(126.373297, 190.070289)"><g><path d="M 13.25 0.25 C 11.25 0.25 9.429688 0 7.796875 -0.5 C 6.171875 -1 4.832031 -1.832031 3.78125 -3 C 2.738281 -4.175781 2.34375 -5.613281 2.59375 -7.3125 L 9.484375 -7.3125 C 9.316406 -6.144531 9.628906 -5.296875 10.421875 -4.765625 C 11.222656 -4.234375 12.375 -3.96875 13.875 -3.96875 C 15.769531 -3.96875 17.125 -4.191406 17.9375 -4.640625 C 18.75 -5.085938 19.222656 -5.867188 19.359375 -6.984375 C 19.410156 -7.398438 19.335938 -7.757812 19.140625 -8.0625 C 18.953125 -8.375 18.550781 -8.644531 17.9375 -8.875 C 17.320312 -9.113281 16.816406 -9.28125 16.421875 -9.375 C 16.035156 -9.476562 15.359375 -9.628906 14.390625 -9.828125 C 14.023438 -9.910156 13.757812 -9.96875 13.59375 -10 C 12.5 -10.21875 11.640625 -10.394531 11.015625 -10.53125 C 10.390625 -10.675781 9.613281 -10.894531 8.6875 -11.1875 C 7.769531 -11.476562 7.050781 -11.804688 6.53125 -12.171875 C 6.019531 -12.535156 5.515625 -12.96875 5.015625 -13.46875 C 4.515625 -13.96875 4.179688 -14.578125 4.015625 -15.296875 C 3.847656 -16.023438 3.832031 -16.835938 3.96875 -17.734375 C 4.28125 -19.898438 5.285156 -21.597656 6.984375 -22.828125 C 9.015625 -24.222656 11.941406 -24.921875 15.765625 -24.921875 C 17.742188 -24.921875 19.519531 -24.671875 21.09375 -24.171875 C 22.664062 -23.671875 23.941406 -22.832031 24.921875 -21.65625 C 25.898438 -20.488281 26.257812 -19.054688 26 -17.359375 L 19.109375 -17.359375 C 19.273438 -18.554688 19.035156 -19.410156 18.390625 -19.921875 C 17.753906 -20.441406 16.695312 -20.703125 15.21875 -20.703125 C 13.550781 -20.703125 12.265625 -20.460938 11.359375 -19.984375 C 10.453125 -19.515625 9.941406 -18.859375 9.828125 -18.015625 C 9.773438 -17.546875 9.875 -17.132812 10.125 -16.78125 C 10.375 -16.4375 10.832031 -16.128906 11.5 -15.859375 C 12.164062 -15.597656 12.753906 -15.40625 13.265625 -15.28125 C 13.785156 -15.15625 14.546875 -14.984375 15.546875 -14.765625 C 15.910156 -14.679688 16.175781 -14.625 16.34375 -14.59375 C 17.65625 -14.3125 18.796875 -14.007812 19.765625 -13.6875 C 20.742188 -13.375 21.710938 -12.941406 22.671875 -12.390625 C 23.640625 -11.847656 24.347656 -11.160156 24.796875 -10.328125 C 25.242188 -9.492188 25.394531 -8.53125 25.25 -7.4375 C 24.894531 -4.988281 23.835938 -3.148438 22.078125 -1.921875 C 20.066406 -0.472656 17.125 0.25 13.25 0.25 Z M 13.25 0.25 "/></g></g></g><g fill="#ffffff" fill-opacity="1"><g transform="translate(155.558819, 190.070289)"><g><path d="M 14 0.25 C 9.65625 0.25 6.550781 -1.128906 4.6875 -3.890625 C 3.125 -6.171875 2.578125 -8.957031 3.046875 -12.25 L 3.046875 -12.421875 C 3.554688 -15.796875 4.882812 -18.597656 7.03125 -20.828125 C 9.695312 -23.554688 13.191406 -24.921875 17.515625 -24.921875 C 20.773438 -24.921875 23.359375 -24.1875 25.265625 -22.71875 C 27.179688 -21.257812 28.179688 -19.300781 28.265625 -16.84375 L 22.40625 -16.84375 C 22.4375 -18.101562 21.960938 -19.0625 20.984375 -19.71875 C 20.015625 -20.375 18.664062 -20.703125 16.9375 -20.703125 C 14.757812 -20.703125 12.925781 -19.921875 11.4375 -18.359375 C 9.945312 -16.796875 9.035156 -14.757812 8.703125 -12.25 C 8.335938 -9.769531 8.691406 -7.769531 9.765625 -6.25 C 10.835938 -4.726562 12.445312 -3.96875 14.59375 -3.96875 C 16.320312 -3.96875 17.769531 -4.296875 18.9375 -4.953125 C 20.113281 -5.609375 20.851562 -6.5625 21.15625 -7.8125 L 27.015625 -7.8125 C 26.253906 -5.394531 24.703125 -3.445312 22.359375 -1.96875 C 20.023438 -0.488281 17.238281 0.25 14 0.25 Z M 14 0.25 "/></g></g></g><g fill="#ffffff" fill-opacity="1"><g transform="translate(186.249594, 190.070289)"><g><path d="M 2.125 0 L 5.5625 -24.453125 L 16.640625 -24.453125 C 19.847656 -24.453125 22.195312 -23.628906 23.6875 -21.984375 C 25.175781 -20.347656 25.753906 -18.332031 25.421875 -15.9375 C 25.222656 -14.457031 24.625 -13.007812 23.625 -11.59375 C 22.625 -10.1875 21.3125 -9.125 19.6875 -8.40625 L 22.453125 0 L 16.21875 0 L 13.796875 -7.3125 L 8.78125 -7.3125 L 7.78125 0 Z M 9.40625 -11.578125 L 14.921875 -11.578125 C 16.148438 -11.578125 17.21875 -11.96875 18.125 -12.75 C 19.03125 -13.53125 19.578125 -14.578125 19.765625 -15.890625 C 19.960938 -17.203125 19.710938 -18.25 19.015625 -19.03125 C 18.328125 -19.8125 17.367188 -20.203125 16.140625 -20.203125 L 10.625 -20.203125 Z M 9.40625 -11.578125 "/></g></g></g><g fill="#ffffff" fill-opacity="1"><g transform="translate(213.846253, 190.070289)"><g><path d="M 23.546875 -3.640625 C 21.140625 -1.046875 17.816406 0.25 13.578125 0.25 C 9.347656 0.25 6.410156 -1.046875 4.765625 -3.640625 C 3.484375 -5.640625 3.050781 -8.203125 3.46875 -11.328125 L 5.359375 -24.453125 L 11 -24.453125 L 9.109375 -11.203125 C 8.804688 -9.003906 9.066406 -7.25 9.890625 -5.9375 C 10.710938 -4.625 12.15625 -3.96875 14.21875 -3.96875 C 16.28125 -3.96875 17.898438 -4.625 19.078125 -5.9375 C 20.265625 -7.25 21.015625 -9.003906 21.328125 -11.203125 L 23.203125 -24.453125 L 28.84375 -24.453125 L 26.96875 -11.328125 C 26.550781 -8.234375 25.410156 -5.671875 23.546875 -3.640625 Z M 23.546875 -3.640625 "/></g></g></g><g fill="#ffffff" fill-opacity="1"><g transform="translate(244.662466, 190.070289)"><g><path d="M 14.046875 0.25 C 9.671875 0.25 6.550781 -1.128906 4.6875 -3.890625 C 3.125 -6.171875 2.578125 -8.957031 3.046875 -12.25 L 3.046875 -12.421875 C 3.554688 -15.796875 4.882812 -18.597656 7.03125 -20.828125 C 9.695312 -23.554688 13.191406 -24.921875 17.515625 -24.921875 C 20.773438 -24.921875 23.359375 -24.1875 25.265625 -22.71875 C 27.179688 -21.257812 28.179688 -19.300781 28.265625 -16.84375 L 22.40625 -16.84375 C 22.4375 -18.101562 21.960938 -19.0625 20.984375 -19.71875 C 20.015625 -20.375 18.664062 -20.703125 16.9375 -20.703125 C 14.757812 -20.703125 12.925781 -19.921875 11.4375 -18.359375 C 9.945312 -16.796875 9.035156 -14.757812 8.703125 -12.25 C 8.335938 -9.769531 8.691406 -7.769531 9.765625 -6.25 C 10.835938 -4.726562 12.445312 -3.96875 14.59375 -3.96875 C 16.539062 -3.96875 18.109375 -4.335938 19.296875 -5.078125 C 20.484375 -5.816406 21.492188 -7.050781 22.328125 -8.78125 L 17.6875 -8.78125 L 18.265625 -12.84375 L 27.640625 -12.84375 L 25.84375 0 L 21.828125 0 L 21.875 -2.34375 C 19.664062 -0.613281 17.054688 0.25 14.046875 0.25 Z M 14.046875 0.25 "/></g></g></g><g fill="#ffffff" fill-opacity="1"><g transform="translate(275.980422, 190.070289)"><g><path d="M 14.046875 0.25 C 9.671875 0.25 6.550781 -1.128906 4.6875 -3.890625 C 3.125 -6.171875 2.578125 -8.957031 3.046875 -12.25 L 3.046875 -12.421875 C 3.554688 -15.796875 4.882812 -18.597656 7.03125 -20.828125 C 9.695312 -23.554688 13.191406 -24.921875 17.515625 -24.921875 C 20.773438 -24.921875 23.359375 -24.1875 25.265625 -22.71875 C 27.179688 -21.257812 28.179688 -19.300781 28.265625 -16.84375 L 22.40625 -16.84375 C 22.4375 -18.101562 21.960938 -19.0625 20.984375 -19.71875 C 20.015625 -20.375 18.664062 -20.703125 16.9375 -20.703125 C 14.757812 -20.703125 12.925781 -19.921875 11.4375 -18.359375 C 9.945312 -16.796875 9.035156 -14.757812 8.703125 -12.25 C 8.335938 -9.769531 8.691406 -7.769531 9.765625 -6.25 C 10.835938 -4.726562 12.445312 -3.96875 14.59375 -3.96875 C 16.539062 -3.96875 18.109375 -4.335938 19.296875 -5.078125 C 20.484375 -5.816406 21.492188 -7.050781 22.328125 -8.78125 L 17.6875 -8.78125 L 18.265625 -12.84375 L 27.640625 -12.84375 L 25.84375 0 L 21.828125 0 L 21.875 -2.34375 C 19.664062 -0.613281 17.054688 0.25 14.046875 0.25 Z M 14.046875 0.25 "/></g></g></g><g fill="#ffffff" fill-opacity="1"><g transform="translate(307.298379, 190.070289)"><g><path d="M 13.25 0.25 C 11.25 0.25 9.429688 0 7.796875 -0.5 C 6.171875 -1 4.832031 -1.832031 3.78125 -3 C 2.738281 -4.175781 2.34375 -5.613281 2.59375 -7.3125 L 9.484375 -7.3125 C 9.316406 -6.144531 9.628906 -5.296875 10.421875 -4.765625 C 11.222656 -4.234375 12.375 -3.96875 13.875 -3.96875 C 15.769531 -3.96875 17.125 -4.191406 17.9375 -4.640625 C 18.75 -5.085938 19.222656 -5.867188 19.359375 -6.984375 C 19.410156 -7.398438 19.335938 -7.757812 19.140625 -8.0625 C 18.953125 -8.375 18.550781 -8.644531 17.9375 -8.875 C 17.320312 -9.113281 16.816406 -9.28125 16.421875 -9.375 C 16.035156 -9.476562 15.359375 -9.628906 14.390625 -9.828125 C 14.023438 -9.910156 13.757812 -9.96875 13.59375 -10 C 12.5 -10.21875 11.640625 -10.394531 11.015625 -10.53125 C 10.390625 -10.675781 9.613281 -10.894531 8.6875 -11.1875 C 7.769531 -11.476562 7.050781 -11.804688 6.53125 -12.171875 C 6.019531 -12.535156 5.515625 -12.96875 5.015625 -13.46875 C 4.515625 -13.96875 4.179688 -14.578125 4.015625 -15.296875 C 3.847656 -16.023438 3.832031 -16.835938 3.96875 -17.734375 C 4.28125 -19.898438 5.285156 -21.597656 6.984375 -22.828125 C 9.015625 -24.222656 11.941406 -24.921875 15.765625 -24.921875 C 17.742188 -24.921875 19.519531 -24.671875 21.09375 -24.171875 C 22.664062 -23.671875 23.941406 -22.832031 24.921875 -21.65625 C 25.898438 -20.488281 26.257812 -19.054688 26 -17.359375 L 19.109375 -17.359375 C 19.273438 -18.554688 19.035156 -19.410156 18.390625 -19.921875 C 17.753906 -20.441406 16.695312 -20.703125 15.21875 -20.703125 C 13.550781 -20.703125 12.265625 -20.460938 11.359375 -19.984375 C 10.453125 -19.515625 9.941406 -18.859375 9.828125 -18.015625 C 9.773438 -17.546875 9.875 -17.132812 10.125 -16.78125 C 10.375 -16.4375 10.832031 -16.128906 11.5 -15.859375 C 12.164062 -15.597656 12.753906 -15.40625 13.265625 -15.28125 C 13.785156 -15.15625 14.546875 -14.984375 15.546875 -14.765625 C 15.910156 -14.679688 16.175781 -14.625 16.34375 -14.59375 C 17.65625 -14.3125 18.796875 -14.007812 19.765625 -13.6875 C 20.742188 -13.375 21.710938 -12.941406 22.671875 -12.390625 C 23.640625 -11.847656 24.347656 -11.160156 24.796875 -10.328125 C 25.242188 -9.492188 25.394531 -8.53125 25.25 -7.4375 C 24.894531 -4.988281 23.835938 -3.148438 22.078125 -1.921875 C 20.066406 -0.472656 17.125 0.25 13.25 0.25 Z M 13.25 0.25 "/></g></g></g><g transform="matrix(1, 0, 0, 1, 144, 198)"><g clip-path="url(#7fc917f9e2)"><g fill="#ffffff" fill-opacity="1"><g transform="translate(1.747152, 13.247949)"><g><path d="M 8.53125 -9.421875 L 5.125 -9.421875 L 5.125 0 L 3.75 0 L 3.75 -9.421875 L 0.359375 -9.421875 L 0.359375 -10.5625 L 8.53125 -10.5625 Z M 8.53125 -9.421875 "/></g></g></g><g fill="#ffffff" fill-opacity="1"><g transform="translate(13.408379, 13.247949)"><g><path d="M 2.71875 0 L 1.328125 0 L 1.328125 -10.5625 L 2.71875 -10.5625 Z M 2.71875 0 "/></g></g></g><g fill="#ffffff" fill-opacity="1"><g transform="translate(20.244874, 13.247949)"><g><path d="M 5.09375 -4.28125 L 2.625 -4.28125 L 2.625 0 L 1.21875 0 L 1.21875 -10.5625 L 4.71875 -10.5625 C 5.90625 -10.5625 6.816406 -10.289062 7.453125 -9.75 C 8.097656 -9.207031 8.421875 -8.421875 8.421875 -7.390625 C 8.421875 -6.734375 8.242188 -6.160156 7.890625 -5.671875 C 7.535156 -5.179688 7.039062 -4.816406 6.40625 -4.578125 L 8.890625 -0.09375 L 8.890625 0 L 7.390625 0 Z M 2.625 -5.40625 L 4.765625 -5.40625 C 5.453125 -5.40625 6 -5.582031 6.40625 -5.9375 C 6.8125 -6.300781 7.015625 -6.785156 7.015625 -7.390625 C 7.015625 -8.035156 6.820312 -8.53125 6.4375 -8.875 C 6.050781 -9.226562 5.488281 -9.410156 4.75 -9.421875 L 2.625 -9.421875 Z M 2.625 -5.40625 "/></g></g></g><g fill="#ffffff" fill-opacity="1"><g transform="translate(32.189063, 13.247949)"><g><path d="M 7.203125 -4.890625 L 2.625 -4.890625 L 2.625 -1.140625 L 7.9375 -1.140625 L 7.9375 0 L 1.21875 0 L 1.21875 -10.5625 L 7.859375 -10.5625 L 7.859375 -9.421875 L 2.625 -9.421875 L 2.625 -6.015625 L 7.203125 -6.015625 Z M 7.203125 -4.890625 "/></g></g></g><g fill="#ffffff" fill-opacity="1"><g transform="translate(43.429486, 13.247949)"><g/></g></g><g fill="#ffffff" fill-opacity="1"><g transform="translate(49.903218, 13.247949)"><g><path d="M 0.734375 -2.84375 C 0.734375 -3.34375 0.875 -3.804688 1.15625 -4.234375 C 1.4375 -4.660156 1.976562 -5.15625 2.78125 -5.71875 C 2.3125 -6.289062 1.992188 -6.75 1.828125 -7.09375 C 1.671875 -7.445312 1.59375 -7.796875 1.59375 -8.140625 C 1.59375 -8.941406 1.828125 -9.566406 2.296875 -10.015625 C 2.773438 -10.472656 3.421875 -10.703125 4.234375 -10.703125 C 4.960938 -10.703125 5.5625 -10.488281 6.03125 -10.0625 C 6.507812 -9.644531 6.75 -9.113281 6.75 -8.46875 C 6.75 -8.050781 6.640625 -7.660156 6.421875 -7.296875 C 6.210938 -6.929688 5.835938 -6.550781 5.296875 -6.15625 L 4.515625 -5.59375 L 6.875 -2.78125 C 7.195312 -3.40625 7.359375 -4.101562 7.359375 -4.875 L 8.578125 -4.875 C 8.578125 -3.644531 8.28125 -2.625 7.6875 -1.8125 L 9.1875 0 L 7.578125 0 L 6.875 -0.828125 C 6.519531 -0.515625 6.097656 -0.273438 5.609375 -0.109375 C 5.128906 0.0546875 4.644531 0.140625 4.15625 0.140625 C 3.125 0.140625 2.296875 -0.128906 1.671875 -0.671875 C 1.046875 -1.222656 0.734375 -1.945312 0.734375 -2.84375 Z M 4.15625 -0.953125 C 4.863281 -0.953125 5.515625 -1.222656 6.109375 -1.765625 L 3.53125 -4.84375 L 3.28125 -4.671875 C 2.476562 -4.078125 2.078125 -3.46875 2.078125 -2.84375 C 2.078125 -2.269531 2.257812 -1.8125 2.625 -1.46875 C 3 -1.125 3.507812 -0.953125 4.15625 -0.953125 Z M 2.9375 -8.1875 C 2.9375 -7.71875 3.222656 -7.132812 3.796875 -6.4375 L 4.65625 -7.046875 C 4.976562 -7.273438 5.195312 -7.492188 5.3125 -7.703125 C 5.4375 -7.921875 5.5 -8.175781 5.5 -8.46875 C 5.5 -8.789062 5.378906 -9.0625 5.140625 -9.28125 C 4.898438 -9.5 4.597656 -9.609375 4.234375 -9.609375 C 3.835938 -9.609375 3.519531 -9.472656 3.28125 -9.203125 C 3.050781 -8.929688 2.9375 -8.59375 2.9375 -8.1875 Z M 2.9375 -8.1875 "/></g></g></g><g fill="#ffffff" fill-opacity="1"><g transform="translate(61.934471, 13.247949)"><g/></g></g><g fill="#ffffff" fill-opacity="1"><g transform="translate(68.408204, 13.247949)"><g><path d="M 7.0625 -2.75 L 2.640625 -2.75 L 1.640625 0 L 0.203125 0 L 4.234375 -10.5625 L 5.453125 -10.5625 L 9.5 0 L 8.0625 0 Z M 3.046875 -3.90625 L 6.640625 -3.90625 L 4.84375 -8.84375 Z M 3.046875 -3.90625 "/></g></g></g><g fill="#ffffff" fill-opacity="1"><g transform="translate(80.896528, 13.247949)"><g><path d="M 2.625 -1.140625 L 7.640625 -1.140625 L 7.640625 0 L 1.21875 0 L 1.21875 -10.5625 L 2.625 -10.5625 Z M 2.625 -1.140625 "/></g></g></g><g fill="#ffffff" fill-opacity="1"><g transform="translate(91.687125, 13.247949)"><g><path d="M 2.71875 0 L 1.328125 0 L 1.328125 -10.5625 L 2.71875 -10.5625 Z M 2.71875 0 "/></g></g></g><g fill="#ffffff" fill-opacity="1"><g transform="translate(98.52362, 13.247949)"><g><path d="M 9.03125 -1.390625 C 8.664062 -0.867188 8.160156 -0.484375 7.515625 -0.234375 C 6.878906 0.015625 6.140625 0.140625 5.296875 0.140625 C 4.429688 0.140625 3.664062 -0.0546875 3 -0.453125 C 2.332031 -0.859375 1.816406 -1.429688 1.453125 -2.171875 C 1.085938 -2.921875 0.898438 -3.789062 0.890625 -4.78125 L 0.890625 -5.703125 C 0.890625 -7.285156 1.257812 -8.515625 2 -9.390625 C 2.738281 -10.265625 3.78125 -10.703125 5.125 -10.703125 C 6.226562 -10.703125 7.113281 -10.421875 7.78125 -9.859375 C 8.457031 -9.296875 8.875 -8.5 9.03125 -7.46875 L 7.640625 -7.46875 C 7.367188 -8.863281 6.535156 -9.5625 5.140625 -9.5625 C 4.203125 -9.5625 3.492188 -9.234375 3.015625 -8.578125 C 2.535156 -7.921875 2.289062 -6.972656 2.28125 -5.734375 L 2.28125 -4.875 C 2.28125 -3.6875 2.550781 -2.742188 3.09375 -2.046875 C 3.632812 -1.347656 4.367188 -1 5.296875 -1 C 5.816406 -1 6.269531 -1.054688 6.65625 -1.171875 C 7.050781 -1.285156 7.378906 -1.476562 7.640625 -1.75 L 7.640625 -4.125 L 5.1875 -4.125 L 5.1875 -5.265625 L 9.03125 -5.265625 Z M 9.03125 -1.390625 "/></g></g></g><g fill="#ffffff" fill-opacity="1"><g transform="translate(111.440013, 13.247949)"><g><path d="M 9.34375 0 L 7.9375 0 L 2.625 -8.140625 L 2.625 0 L 1.21875 0 L 1.21875 -10.5625 L 2.625 -10.5625 L 7.953125 -2.390625 L 7.953125 -10.5625 L 9.34375 -10.5625 Z M 9.34375 0 "/></g></g></g><g fill="#ffffff" fill-opacity="1"><g transform="translate(124.827988, 13.247949)"><g><path d="M 3.03125 -10.5625 L 6.484375 -1.9375 L 9.9375 -10.5625 L 11.734375 -10.5625 L 11.734375 0 L 10.34375 0 L 10.34375 -4.109375 L 10.484375 -8.546875 L 7.015625 0 L 5.9375 0 L 2.484375 -8.53125 L 2.625 -4.109375 L 2.625 0 L 1.21875 0 L 1.21875 -10.5625 Z M 3.03125 -10.5625 "/></g></g></g><g fill="#ffffff" fill-opacity="1"><g transform="translate(140.595685, 13.247949)"><g><path d="M 7.203125 -4.890625 L 2.625 -4.890625 L 2.625 -1.140625 L 7.9375 -1.140625 L 7.9375 0 L 1.21875 0 L 1.21875 -10.5625 L 7.859375 -10.5625 L 7.859375 -9.421875 L 2.625 -9.421875 L 2.625 -6.015625 L 7.203125 -6.015625 Z M 7.203125 -4.890625 "/></g></g></g><g fill="#ffffff" fill-opacity="1"><g transform="translate(151.836107, 13.247949)"><g><path d="M 9.34375 0 L 7.9375 0 L 2.625 -8.140625 L 2.625 0 L 1.21875 0 L 1.21875 -10.5625 L 2.625 -10.5625 L 7.953125 -2.390625 L 7.953125 -10.5625 L 9.34375 -10.5625 Z M 9.34375 0 "/></g></g></g><g fill="#ffffff" fill-opacity="1"><g transform="translate(165.224083, 13.247949)"><g><path d="M 8.53125 -9.421875 L 5.125 -9.421875 L 5.125 0 L 3.75 0 L 3.75 -9.421875 L 0.359375 -9.421875 L 0.359375 -10.5625 L 8.53125 -10.5625 Z M 8.53125 -9.421875 "/></g></g></g></g></g></svg>